# xmcd
#
# Track frame offsets:
#	150
#	14910
#	29970
#	46202
#	62257
#	76317
#	91870
#	107387
#	120367
#	134105
#	144637
#	159332
#	163175
#	178302
#	199035
#	216445
#	233562
#	244082
#	260957
#	272812
#
# Disc length: 3782 seconds
#
# Revision: 0
# Processed by: cddbd v1.4PL0 Copyright (c) Steve Scherf et al.
# Submitted via: dBpowerAMP V4.0
#
DISCID=270ec414
DTITLE=Australian Boot Scootin' Band - Line Dancing Especially For Kids
DYEAR=1996
DGENRE=Country
TTITLE0=Wild Man
TTITLE1=Boot Scootin' Boogie
TTITLE2=Dance With A Cowboy
TTITLE3=Mercury Blues
TTITLE4=Cleopatra Queen Of Denial
TTITLE5=Yippy Ti Yi Yo
TTITLE6=I Feel Lucky
TTITLE7=Boys From The Bush
TTITLE8=Queen Of Hearts
TTITLE9=Cotton Eyed Joe
TTITLE10=Fiddle Tune Medley
TTITLE11=Introduction
TTITLE12=Wild Man - Learner Version
TTITLE13=Boot Scootin' Boogie - Learner Version
TTITLE14=Mercury Blues - Learner Version
TTITLE15=Cleopatra Queen Of Denial - Learner Version
TTITLE16=Yippy Ti Yi Yo - Learner Version
TTITLE17=I Feel Lucky - Learner Version
TTITLE18=Queen Of Hearts - Learner Version
TTITLE19=Cotton Eyed Joe - Learner Version
EXTD=
EXTT0=
EXTT1=
EXTT2=
EXTT3=
EXTT4=
EXTT5=
EXTT6=
EXTT7=
EXTT8=
EXTT9=
EXTT10=
EXTT11=
EXTT12=
EXTT13=
EXTT14=
EXTT15=
EXTT16=
EXTT17=
EXTT18=
EXTT19=
PLAYORDER=
